<mxfile host="app.diagrams.net" modified="2021-03-01T14:39:23.048Z" agent="5.0 (Windows NT 10.0; Win64; x64) AppleWebKit/537.36 (KHTML, like Gecko) Chrome/88.0.4324.190 Safari/537.36" etag="IC3zDiZs92U3XGxCuGuz" version="14.4.3" type="github">
  <diagram id="8QmQjejVhtJQyyKby9Nz" name="Page-1">
    <mxGraphModel dx="2773" dy="896" grid="1" gridSize="10" guides="1" tooltips="1" connect="1" arrows="1" fold="1" page="1" pageScale="1" pageWidth="1100" pageHeight="850" math="0" shadow="0">
      <root>
        <mxCell id="0" />
        <mxCell id="1" parent="0" />
        <mxCell id="TQmIplnuTKhtlXXdvGrk-3" style="edgeStyle=orthogonalEdgeStyle;rounded=0;orthogonalLoop=1;jettySize=auto;html=1;" edge="1" parent="1" source="TQmIplnuTKhtlXXdvGrk-1">
          <mxGeometry relative="1" as="geometry">
            <mxPoint x="535" y="140" as="targetPoint" />
          </mxGeometry>
        </mxCell>
        <mxCell id="TQmIplnuTKhtlXXdvGrk-1" value="idf.onmicrosoft.com&lt;br&gt;xxx.onmicrosoft.com" style="rounded=0;whiteSpace=wrap;html=1;fillColor=#dae8fc;strokeColor=#6c8ebf;" vertex="1" parent="1">
          <mxGeometry x="370" y="50" width="330" height="50" as="geometry" />
        </mxCell>
        <mxCell id="TQmIplnuTKhtlXXdvGrk-2" value="&lt;font style=&quot;font-size: 17px&quot;&gt;Tenant&lt;/font&gt;" style="text;html=1;align=center;verticalAlign=middle;resizable=0;points=[];autosize=1;" vertex="1" parent="1">
          <mxGeometry x="510" y="20" width="70" height="20" as="geometry" />
        </mxCell>
        <mxCell id="TQmIplnuTKhtlXXdvGrk-5" value="Azure AD" style="rounded=0;whiteSpace=wrap;html=1;fillColor=#dae8fc;strokeColor=#6c8ebf;" vertex="1" parent="1">
          <mxGeometry x="390" y="140" width="265" height="50" as="geometry" />
        </mxCell>
        <mxCell id="TQmIplnuTKhtlXXdvGrk-14" style="edgeStyle=orthogonalEdgeStyle;curved=1;rounded=0;orthogonalLoop=1;jettySize=auto;html=1;entryX=-0.013;entryY=0.617;entryDx=0;entryDy=0;entryPerimeter=0;exitX=0.5;exitY=0;exitDx=0;exitDy=0;" edge="1" parent="1" source="TQmIplnuTKhtlXXdvGrk-7" target="TQmIplnuTKhtlXXdvGrk-5">
          <mxGeometry relative="1" as="geometry">
            <Array as="points">
              <mxPoint x="243" y="171" />
            </Array>
          </mxGeometry>
        </mxCell>
        <mxCell id="TQmIplnuTKhtlXXdvGrk-7" value="Office 365" style="rounded=0;whiteSpace=wrap;html=1;fillColor=#dae8fc;strokeColor=#6c8ebf;" vertex="1" parent="1">
          <mxGeometry x="110" y="240" width="265" height="50" as="geometry" />
        </mxCell>
        <mxCell id="TQmIplnuTKhtlXXdvGrk-10" style="edgeStyle=orthogonalEdgeStyle;curved=1;rounded=0;orthogonalLoop=1;jettySize=auto;html=1;entryX=0.673;entryY=1.05;entryDx=0;entryDy=0;entryPerimeter=0;" edge="1" parent="1" source="TQmIplnuTKhtlXXdvGrk-9" target="TQmIplnuTKhtlXXdvGrk-5">
          <mxGeometry relative="1" as="geometry" />
        </mxCell>
        <mxCell id="TQmIplnuTKhtlXXdvGrk-20" style="edgeStyle=none;rounded=0;orthogonalLoop=1;jettySize=auto;html=1;" edge="1" parent="1" source="TQmIplnuTKhtlXXdvGrk-9" target="TQmIplnuTKhtlXXdvGrk-19">
          <mxGeometry relative="1" as="geometry" />
        </mxCell>
        <mxCell id="TQmIplnuTKhtlXXdvGrk-9" value="Azure" style="rounded=0;whiteSpace=wrap;html=1;fillColor=#dae8fc;strokeColor=#6c8ebf;" vertex="1" parent="1">
          <mxGeometry x="435" y="240" width="265" height="50" as="geometry" />
        </mxCell>
        <mxCell id="TQmIplnuTKhtlXXdvGrk-12" style="edgeStyle=orthogonalEdgeStyle;curved=1;rounded=0;orthogonalLoop=1;jettySize=auto;html=1;entryX=1;entryY=0.5;entryDx=0;entryDy=0;" edge="1" parent="1" source="TQmIplnuTKhtlXXdvGrk-11" target="TQmIplnuTKhtlXXdvGrk-5">
          <mxGeometry relative="1" as="geometry">
            <Array as="points">
              <mxPoint x="840" y="165" />
            </Array>
          </mxGeometry>
        </mxCell>
        <mxCell id="TQmIplnuTKhtlXXdvGrk-11" value="Azure DevOps" style="rounded=0;whiteSpace=wrap;html=1;fillColor=#dae8fc;strokeColor=#6c8ebf;" vertex="1" parent="1">
          <mxGeometry x="740" y="240" width="265" height="50" as="geometry" />
        </mxCell>
        <mxCell id="TQmIplnuTKhtlXXdvGrk-22" value="" style="edgeStyle=none;rounded=0;orthogonalLoop=1;jettySize=auto;html=1;exitX=0.519;exitY=0.014;exitDx=0;exitDy=0;exitPerimeter=0;startArrow=classic;startFill=1;" edge="1" parent="1" source="TQmIplnuTKhtlXXdvGrk-16" target="TQmIplnuTKhtlXXdvGrk-7">
          <mxGeometry relative="1" as="geometry" />
        </mxCell>
        <mxCell id="TQmIplnuTKhtlXXdvGrk-16" value="Licenses" style="rounded=0;whiteSpace=wrap;html=1;fillColor=#dae8fc;strokeColor=#6c8ebf;" vertex="1" parent="1">
          <mxGeometry x="105" y="330" width="265" height="50" as="geometry" />
        </mxCell>
        <mxCell id="TQmIplnuTKhtlXXdvGrk-19" value="Subscriptions 1&lt;br&gt;PAYG" style="rounded=0;whiteSpace=wrap;html=1;fillColor=#f8cecc;strokeColor=#b85450;" vertex="1" parent="1">
          <mxGeometry x="435" y="330" width="265" height="50" as="geometry" />
        </mxCell>
        <mxCell id="TQmIplnuTKhtlXXdvGrk-23" value="Subscriptions 2&lt;br&gt;Credit - Sponserdship" style="rounded=0;whiteSpace=wrap;html=1;fillColor=#f8cecc;strokeColor=#b85450;" vertex="1" parent="1">
          <mxGeometry x="435" y="400" width="265" height="50" as="geometry" />
        </mxCell>
        <mxCell id="TQmIplnuTKhtlXXdvGrk-24" value="Subscriptions 3&lt;br&gt;CSP" style="rounded=0;whiteSpace=wrap;html=1;fillColor=#f8cecc;strokeColor=#b85450;" vertex="1" parent="1">
          <mxGeometry x="435" y="470" width="265" height="50" as="geometry" />
        </mxCell>
        <mxCell id="TQmIplnuTKhtlXXdvGrk-26" value="Subscriptions 4&lt;br&gt;EA" style="rounded=0;whiteSpace=wrap;html=1;fillColor=#f8cecc;strokeColor=#b85450;" vertex="1" parent="1">
          <mxGeometry x="435" y="540" width="265" height="50" as="geometry" />
        </mxCell>
        <mxCell id="TQmIplnuTKhtlXXdvGrk-27" value="IAM" style="text;html=1;align=center;verticalAlign=middle;resizable=0;points=[];autosize=1;" vertex="1" parent="1">
          <mxGeometry x="710" y="345" width="40" height="20" as="geometry" />
        </mxCell>
        <mxCell id="TQmIplnuTKhtlXXdvGrk-28" value="IAM" style="text;html=1;align=center;verticalAlign=middle;resizable=0;points=[];autosize=1;" vertex="1" parent="1">
          <mxGeometry x="710" y="415" width="40" height="20" as="geometry" />
        </mxCell>
        <mxCell id="TQmIplnuTKhtlXXdvGrk-29" value="IAM" style="text;html=1;align=center;verticalAlign=middle;resizable=0;points=[];autosize=1;" vertex="1" parent="1">
          <mxGeometry x="710" y="485" width="40" height="20" as="geometry" />
        </mxCell>
        <mxCell id="TQmIplnuTKhtlXXdvGrk-30" value="IAM" style="text;html=1;align=center;verticalAlign=middle;resizable=0;points=[];autosize=1;" vertex="1" parent="1">
          <mxGeometry x="710" y="555" width="40" height="20" as="geometry" />
        </mxCell>
        <mxCell id="TQmIplnuTKhtlXXdvGrk-33" style="edgeStyle=none;rounded=0;orthogonalLoop=1;jettySize=auto;html=1;entryX=0;entryY=0.25;entryDx=0;entryDy=0;startArrow=classic;startFill=1;strokeColor=#3333FF;" edge="1" parent="1" source="TQmIplnuTKhtlXXdvGrk-32" target="TQmIplnuTKhtlXXdvGrk-5">
          <mxGeometry relative="1" as="geometry" />
        </mxCell>
        <mxCell id="TQmIplnuTKhtlXXdvGrk-32" value="Tal&lt;br&gt;Global Administrator" style="shape=umlActor;verticalLabelPosition=bottom;verticalAlign=top;html=1;outlineConnect=0;" vertex="1" parent="1">
          <mxGeometry x="210" y="52.5" width="20" height="45" as="geometry" />
        </mxCell>
        <mxCell id="TQmIplnuTKhtlXXdvGrk-34" value="Owner&lt;br&gt;Reader&lt;br&gt;Contrbuiter&lt;br&gt;" style="text;html=1;align=center;verticalAlign=middle;resizable=0;points=[];autosize=1;" vertex="1" parent="1">
          <mxGeometry x="740" y="330" width="70" height="50" as="geometry" />
        </mxCell>
        <mxCell id="TQmIplnuTKhtlXXdvGrk-35" value="Owner" style="text;html=1;align=center;verticalAlign=middle;resizable=0;points=[];autosize=1;" vertex="1" parent="1">
          <mxGeometry x="750" y="415" width="50" height="20" as="geometry" />
        </mxCell>
        <mxCell id="TQmIplnuTKhtlXXdvGrk-36" value="Owner" style="text;html=1;align=center;verticalAlign=middle;resizable=0;points=[];autosize=1;" vertex="1" parent="1">
          <mxGeometry x="750" y="490" width="50" height="20" as="geometry" />
        </mxCell>
        <mxCell id="TQmIplnuTKhtlXXdvGrk-37" value="Owner" style="text;html=1;align=center;verticalAlign=middle;resizable=0;points=[];autosize=1;" vertex="1" parent="1">
          <mxGeometry x="750" y="555" width="50" height="20" as="geometry" />
        </mxCell>
        <mxCell id="TQmIplnuTKhtlXXdvGrk-43" style="edgeStyle=none;rounded=0;orthogonalLoop=1;jettySize=auto;html=1;entryX=0.5;entryY=0;entryDx=0;entryDy=0;startArrow=classic;startFill=1;strokeColor=#3333FF;" edge="1" parent="1" source="TQmIplnuTKhtlXXdvGrk-41" target="TQmIplnuTKhtlXXdvGrk-42">
          <mxGeometry relative="1" as="geometry" />
        </mxCell>
        <mxCell id="TQmIplnuTKhtlXXdvGrk-44" style="edgeStyle=orthogonalEdgeStyle;rounded=0;orthogonalLoop=1;jettySize=auto;html=1;entryX=0;entryY=0.5;entryDx=0;entryDy=0;startArrow=classic;startFill=1;curved=1;" edge="1" parent="1" source="TQmIplnuTKhtlXXdvGrk-41" target="TQmIplnuTKhtlXXdvGrk-5">
          <mxGeometry relative="1" as="geometry">
            <Array as="points">
              <mxPoint x="-97" y="165" />
            </Array>
          </mxGeometry>
        </mxCell>
        <mxCell id="TQmIplnuTKhtlXXdvGrk-41" value="Dynamics" style="rounded=0;whiteSpace=wrap;html=1;fillColor=#dae8fc;strokeColor=#6c8ebf;" vertex="1" parent="1">
          <mxGeometry x="-230" y="240" width="265" height="50" as="geometry" />
        </mxCell>
        <mxCell id="TQmIplnuTKhtlXXdvGrk-42" value="Licenses" style="rounded=0;whiteSpace=wrap;html=1;fillColor=#dae8fc;strokeColor=#6c8ebf;" vertex="1" parent="1">
          <mxGeometry x="-230" y="330" width="265" height="50" as="geometry" />
        </mxCell>
      </root>
    </mxGraphModel>
  </diagram>
</mxfile>
